<svg width="40" height="18" viewBox="0 0 40 18" fill="none" xmlns="http://www.w3.org/2000/svg">
<path d="M7.30661 2.90626C6.83786 3.46251 6.08786 3.90001 5.33786 3.83751C5.24411 3.08751 5.61286 2.28751 6.04411 1.80001C6.51286 1.23126 7.33161 0.825012 8.00036 0.793762C8.07536 1.56876 7.76911 2.33751 7.30661 2.90626ZM7.98786 3.98126C6.90036 3.91876 5.96911 4.60001 5.45661 4.60001C4.93161 4.60001 4.14411 4.01251 3.28161 4.03126C2.16286 4.05001 1.12536 4.68126 0.55661 5.68751C-0.61839 7.70626 0.25036 10.6875 1.38786 12.3313C1.94411 13.1438 2.60661 14.0375 3.48161 14.0063C4.31286 13.975 4.63786 13.4688 5.63786 13.4688C6.64411 13.4688 6.93786 14.0063 7.81286 13.9938C8.71911 13.975 9.28786 13.1813 9.84411 12.3688C10.4754 11.4438 10.7379 10.55 10.7504 10.5C10.7316 10.4813 9.00036 9.81876 8.98161 7.81876C8.96286 6.14376 10.3504 5.35001 10.4129 5.30001C9.63161 4.13751 8.41286 4.01251 7.98786 3.98126ZM14.2629 1.71876V13.9H16.1566V9.73751H18.7754C21.1691 9.73751 22.8441 8.09376 22.8441 5.71876C22.8441 3.34376 21.1941 1.71876 18.8379 1.71876H14.2629ZM16.1566 3.31251H18.3379C19.9816 3.31251 20.9191 4.18751 20.9191 5.72501C20.9191 7.26251 19.9816 8.15001 18.3316 8.15001H16.1566V3.31251ZM26.2941 13.9938C27.4816 13.9938 28.5816 13.3938 29.0816 12.4375H29.1191V13.9H30.8691V7.83751C30.8691 6.08126 29.4629 4.94376 27.3004 4.94376C25.2941 4.94376 23.8066 6.09376 23.7504 7.66876H25.4566C25.6004 6.91876 26.2941 6.42501 27.2441 6.42501C28.4004 6.42501 29.0504 6.96251 29.0504 7.95626V8.63126L26.6879 8.77501C24.4941 8.90626 23.3066 9.80626 23.3066 11.3688C23.3129 12.9438 24.5379 13.9938 26.2941 13.9938ZM26.8066 12.55C25.8004 12.55 25.1566 12.0625 25.1566 11.325C25.1566 10.5563 25.7754 10.1125 26.9566 10.0438L29.0566 9.91251V10.6C29.0566 11.7375 28.0879 12.55 26.8066 12.55ZM33.2129 17.2125C35.0566 17.2125 35.9254 16.5063 36.6816 14.375L40.0004 5.06251H38.0754L35.8504 12.2563H35.8129L33.5879 5.06251H31.6129L34.8129 13.9313L34.6379 14.4688C34.3504 15.3813 33.8816 15.7375 33.0441 15.7375C32.8941 15.7375 32.6066 15.7188 32.4879 15.7063V17.1688C32.6004 17.1938 33.0691 17.2125 33.2129 17.2125Z" fill="currentColor"/>
</svg>
