<svg width="129" height="50" viewBox="0 0 129 50" fill="none" xmlns="http://www.w3.org/2000/svg">
<path d="M43.868 17.14H40.22L39.548 19H38.396L41.42 10.684H42.68L45.692 19H44.54L43.868 17.14ZM43.556 16.252L42.044 12.028L40.532 16.252H43.556ZM49.4579 17.992L51.4979 12.424H52.6619L50.0819 19H48.8099L46.2299 12.424H47.4059L49.4579 17.992ZM53.3285 15.688C53.3285 15.016 53.4645 14.428 53.7365 13.924C54.0085 13.412 54.3805 13.016 54.8525 12.736C55.3325 12.456 55.8645 12.316 56.4485 12.316C57.0245 12.316 57.5245 12.44 57.9485 12.688C58.3725 12.936 58.6885 13.248 58.8965 13.624V12.424H60.0005V19H58.8965V17.776C58.6805 18.16 58.3565 18.48 57.9245 18.736C57.5005 18.984 57.0045 19.108 56.4365 19.108C55.8525 19.108 55.3245 18.964 54.8525 18.676C54.3805 18.388 54.0085 17.984 53.7365 17.464C53.4645 16.944 53.3285 16.352 53.3285 15.688ZM58.8965 15.7C58.8965 15.204 58.7965 14.772 58.5965 14.404C58.3965 14.036 58.1245 13.756 57.7805 13.564C57.4445 13.364 57.0725 13.264 56.6645 13.264C56.2565 13.264 55.8845 13.36 55.5485 13.552C55.2125 13.744 54.9445 14.024 54.7445 14.392C54.5445 14.76 54.4445 15.192 54.4445 15.688C54.4445 16.192 54.5445 16.632 54.7445 17.008C54.9445 17.376 55.2125 17.66 55.5485 17.86C55.8845 18.052 56.2565 18.148 56.6645 18.148C57.0725 18.148 57.4445 18.052 57.7805 17.86C58.1245 17.66 58.3965 17.376 58.5965 17.008C58.7965 16.632 58.8965 16.196 58.8965 15.7ZM62.4099 11.356C62.2019 11.356 62.0259 11.284 61.8819 11.14C61.7379 10.996 61.6659 10.82 61.6659 10.612C61.6659 10.404 61.7379 10.228 61.8819 10.084C62.0259 9.94 62.2019 9.868 62.4099 9.868C62.6099 9.868 62.7779 9.94 62.9139 10.084C63.0579 10.228 63.1299 10.404 63.1299 10.612C63.1299 10.82 63.0579 10.996 62.9139 11.14C62.7779 11.284 62.6099 11.356 62.4099 11.356ZM62.9379 12.424V19H61.8459V12.424H62.9379ZM65.891 10.12V19H64.799V10.12H65.891ZM67.3441 15.688C67.3441 15.016 67.4801 14.428 67.7521 13.924C68.0241 13.412 68.3961 13.016 68.8681 12.736C69.3481 12.456 69.8801 12.316 70.4641 12.316C71.0401 12.316 71.5401 12.44 71.9641 12.688C72.3881 12.936 72.7041 13.248 72.9121 13.624V12.424H74.0161V19H72.9121V17.776C72.6961 18.16 72.3721 18.48 71.9401 18.736C71.5161 18.984 71.0201 19.108 70.4521 19.108C69.8681 19.108 69.3401 18.964 68.8681 18.676C68.3961 18.388 68.0241 17.984 67.7521 17.464C67.4801 16.944 67.3441 16.352 67.3441 15.688ZM72.9121 15.7C72.9121 15.204 72.8121 14.772 72.6121 14.404C72.4121 14.036 72.1401 13.756 71.7961 13.564C71.4601 13.364 71.0881 13.264 70.6801 13.264C70.2721 13.264 69.9001 13.36 69.5641 13.552C69.2281 13.744 68.9601 14.024 68.7601 14.392C68.5601 14.76 68.4601 15.192 68.4601 15.688C68.4601 16.192 68.5601 16.632 68.7601 17.008C68.9601 17.376 69.2281 17.66 69.5641 17.86C69.9001 18.052 70.2721 18.148 70.6801 18.148C71.0881 18.148 71.4601 18.052 71.7961 17.86C72.1401 17.66 72.4121 17.376 72.6121 17.008C72.8121 16.632 72.9121 16.196 72.9121 15.7ZM76.9535 13.648C77.1775 13.256 77.5055 12.936 77.9375 12.688C78.3695 12.44 78.8615 12.316 79.4135 12.316C80.0055 12.316 80.5375 12.456 81.0095 12.736C81.4815 13.016 81.8535 13.412 82.1255 13.924C82.3975 14.428 82.5335 15.016 82.5335 15.688C82.5335 16.352 82.3975 16.944 82.1255 17.464C81.8535 17.984 81.4775 18.388 80.9975 18.676C80.5255 18.964 79.9975 19.108 79.4135 19.108C78.8455 19.108 78.3455 18.984 77.9135 18.736C77.4895 18.488 77.1695 18.172 76.9535 17.788V19H75.8615V10.12H76.9535V13.648ZM81.4175 15.688C81.4175 15.192 81.3175 14.76 81.1175 14.392C80.9175 14.024 80.6455 13.744 80.3015 13.552C79.9655 13.36 79.5935 13.264 79.1855 13.264C78.7855 13.264 78.4135 13.364 78.0695 13.564C77.7335 13.756 77.4615 14.04 77.2535 14.416C77.0535 14.784 76.9535 15.212 76.9535 15.7C76.9535 16.196 77.0535 16.632 77.2535 17.008C77.4615 17.376 77.7335 17.66 78.0695 17.86C78.4135 18.052 78.7855 18.148 79.1855 18.148C79.5935 18.148 79.9655 18.052 80.3015 17.86C80.6455 17.66 80.9175 17.376 81.1175 17.008C81.3175 16.632 81.4175 16.192 81.4175 15.688ZM85.0629 10.12V19H83.9709V10.12H85.0629ZM92.924 15.46C92.924 15.668 92.912 15.888 92.888 16.12H87.632C87.672 16.768 87.892 17.276 88.292 17.644C88.7 18.004 89.192 18.184 89.768 18.184C90.24 18.184 90.632 18.076 90.944 17.86C91.264 17.636 91.488 17.34 91.616 16.972H92.792C92.616 17.604 92.264 18.12 91.736 18.52C91.208 18.912 90.552 19.108 89.768 19.108C89.144 19.108 88.584 18.968 88.088 18.688C87.6 18.408 87.216 18.012 86.936 17.5C86.656 16.98 86.516 16.38 86.516 15.7C86.516 15.02 86.652 14.424 86.924 13.912C87.196 13.4 87.576 13.008 88.064 12.736C88.56 12.456 89.128 12.316 89.768 12.316C90.392 12.316 90.944 12.452 91.424 12.724C91.904 12.996 92.272 13.372 92.528 13.852C92.792 14.324 92.924 14.86 92.924 15.46ZM91.796 15.232C91.796 14.816 91.704 14.46 91.52 14.164C91.336 13.86 91.084 13.632 90.764 13.48C90.452 13.32 90.104 13.24 89.72 13.24C89.168 13.24 88.696 13.416 88.304 13.768C87.92 14.12 87.7 14.608 87.644 15.232H91.796ZM100.433 19.108C99.8166 19.108 99.2566 18.968 98.7526 18.688C98.2566 18.408 97.8646 18.012 97.5766 17.5C97.2966 16.98 97.1566 16.38 97.1566 15.7C97.1566 15.028 97.3006 14.436 97.5886 13.924C97.8846 13.404 98.2846 13.008 98.7886 12.736C99.2926 12.456 99.8566 12.316 100.481 12.316C101.105 12.316 101.669 12.456 102.173 12.736C102.677 13.008 103.073 13.4 103.361 13.912C103.657 14.424 103.805 15.02 103.805 15.7C103.805 16.38 103.653 16.98 103.349 17.5C103.053 18.012 102.649 18.408 102.137 18.688C101.625 18.968 101.057 19.108 100.433 19.108ZM100.433 18.148C100.825 18.148 101.193 18.056 101.537 17.872C101.881 17.688 102.157 17.412 102.365 17.044C102.581 16.676 102.689 16.228 102.689 15.7C102.689 15.172 102.585 14.724 102.377 14.356C102.169 13.988 101.897 13.716 101.561 13.54C101.225 13.356 100.861 13.264 100.469 13.264C100.069 13.264 99.7006 13.356 99.3646 13.54C99.0366 13.716 98.7726 13.988 98.5726 14.356C98.3726 14.724 98.2726 15.172 98.2726 15.7C98.2726 16.236 98.3686 16.688 98.5606 17.056C98.7606 17.424 99.0246 17.7 99.3526 17.884C99.6806 18.06 100.041 18.148 100.433 18.148ZM108.444 12.304C109.244 12.304 109.892 12.548 110.388 13.036C110.884 13.516 111.132 14.212 111.132 15.124V19H110.052V15.28C110.052 14.624 109.888 14.124 109.56 13.78C109.232 13.428 108.784 13.252 108.216 13.252C107.64 13.252 107.18 13.432 106.836 13.792C106.5 14.152 106.332 14.676 106.332 15.364V19H105.24V12.424H106.332V13.36C106.548 13.024 106.84 12.764 107.208 12.58C107.584 12.396 107.996 12.304 108.444 12.304Z" fill="white" fill-opacity="0.9"/>
<path d="M46.982 38.768H42.266L41.51 41H38.288L42.86 28.364H46.424L50.996 41H47.738L46.982 38.768ZM46.19 36.392L44.624 31.766L43.076 36.392H46.19ZM55.4655 32.378C55.7655 31.91 56.1795 31.532 56.7075 31.244C57.2355 30.956 57.8535 30.812 58.5615 30.812C59.3895 30.812 60.1395 31.022 60.8115 31.442C61.4835 31.862 62.0115 32.462 62.3955 33.242C62.7915 34.022 62.9895 34.928 62.9895 35.96C62.9895 36.992 62.7915 37.904 62.3955 38.696C62.0115 39.476 61.4835 40.082 60.8115 40.514C60.1395 40.934 59.3895 41.144 58.5615 41.144C57.8655 41.144 57.2475 41 56.7075 40.712C56.1795 40.424 55.7655 40.052 55.4655 39.596V45.788H52.3875V30.956H55.4655V32.378ZM59.8575 35.96C59.8575 35.192 59.6415 34.592 59.2095 34.16C58.7895 33.716 58.2675 33.494 57.6435 33.494C57.0315 33.494 56.5095 33.716 56.0775 34.16C55.6575 34.604 55.4475 35.21 55.4475 35.978C55.4475 36.746 55.6575 37.352 56.0775 37.796C56.5095 38.24 57.0315 38.462 57.6435 38.462C58.2555 38.462 58.7775 38.24 59.2095 37.796C59.6415 37.34 59.8575 36.728 59.8575 35.96ZM67.6823 32.378C67.9823 31.91 68.3963 31.532 68.9243 31.244C69.4523 30.956 70.0703 30.812 70.7783 30.812C71.6063 30.812 72.3563 31.022 73.0283 31.442C73.7003 31.862 74.2283 32.462 74.6123 33.242C75.0083 34.022 75.2063 34.928 75.2063 35.96C75.2063 36.992 75.0083 37.904 74.6123 38.696C74.2283 39.476 73.7003 40.082 73.0283 40.514C72.3563 40.934 71.6063 41.144 70.7783 41.144C70.0823 41.144 69.4643 41 68.9243 40.712C68.3963 40.424 67.9823 40.052 67.6823 39.596V45.788H64.6043V30.956H67.6823V32.378ZM72.0743 35.96C72.0743 35.192 71.8583 34.592 71.4263 34.16C71.0063 33.716 70.4843 33.494 69.8603 33.494C69.2483 33.494 68.7263 33.716 68.2943 34.16C67.8743 34.604 67.6643 35.21 67.6643 35.978C67.6643 36.746 67.8743 37.352 68.2943 37.796C68.7263 38.24 69.2483 38.462 69.8603 38.462C70.4723 38.462 70.9943 38.24 71.4263 37.796C71.8583 37.34 72.0743 36.728 72.0743 35.96ZM85.2075 41.126C84.2835 41.126 83.4555 40.976 82.7235 40.676C81.9915 40.376 81.4035 39.932 80.9595 39.344C80.5275 38.756 80.2995 38.048 80.2755 37.22H83.5515C83.5995 37.688 83.7615 38.048 84.0375 38.3C84.3135 38.54 84.6735 38.66 85.1175 38.66C85.5735 38.66 85.9335 38.558 86.1975 38.354C86.4615 38.138 86.5935 37.844 86.5935 37.472C86.5935 37.16 86.4855 36.902 86.2695 36.698C86.0655 36.494 85.8075 36.326 85.4955 36.194C85.1955 36.062 84.7635 35.912 84.1995 35.744C83.3835 35.492 82.7175 35.24 82.2015 34.988C81.6855 34.736 81.2415 34.364 80.8695 33.872C80.4975 33.38 80.3115 32.738 80.3115 31.946C80.3115 30.77 80.7375 29.852 81.5895 29.192C82.4415 28.52 83.5515 28.184 84.9195 28.184C86.3115 28.184 87.4335 28.52 88.2855 29.192C89.1375 29.852 89.5935 30.776 89.6535 31.964H86.3235C86.2995 31.556 86.1495 31.238 85.8735 31.01C85.5975 30.77 85.2435 30.65 84.8115 30.65C84.4395 30.65 84.1395 30.752 83.9115 30.956C83.6835 31.148 83.5695 31.43 83.5695 31.802C83.5695 32.21 83.7615 32.528 84.1455 32.756C84.5295 32.984 85.1295 33.23 85.9455 33.494C86.7615 33.77 87.4215 34.034 87.9255 34.286C88.4415 34.538 88.8855 34.904 89.2575 35.384C89.6295 35.864 89.8155 36.482 89.8155 37.238C89.8155 37.958 89.6295 38.612 89.2575 39.2C88.8975 39.788 88.3695 40.256 87.6735 40.604C86.9775 40.952 86.1555 41.126 85.2075 41.126ZM97.3078 38.39V41H95.7418C94.6258 41 93.7558 40.73 93.1318 40.19C92.5078 39.638 92.1958 38.744 92.1958 37.508V33.512H90.9718V30.956H92.1958V28.508H95.2738V30.956H97.2898V33.512H95.2738V37.544C95.2738 37.844 95.3458 38.06 95.4898 38.192C95.6338 38.324 95.8738 38.39 96.2098 38.39H97.3078ZM103.594 41.144C102.61 41.144 101.722 40.934 100.93 40.514C100.15 40.094 99.5323 39.494 99.0763 38.714C98.6323 37.934 98.4103 37.022 98.4103 35.978C98.4103 34.946 98.6383 34.04 99.0942 33.26C99.5503 32.468 100.174 31.862 100.966 31.442C101.758 31.022 102.646 30.812 103.63 30.812C104.614 30.812 105.502 31.022 106.294 31.442C107.086 31.862 107.71 32.468 108.166 33.26C108.622 34.04 108.85 34.946 108.85 35.978C108.85 37.01 108.616 37.922 108.148 38.714C107.692 39.494 107.062 40.094 106.258 40.514C105.466 40.934 104.578 41.144 103.594 41.144ZM103.594 38.48C104.182 38.48 104.68 38.264 105.088 37.832C105.508 37.4 105.718 36.782 105.718 35.978C105.718 35.174 105.514 34.556 105.106 34.124C104.71 33.692 104.218 33.476 103.63 33.476C103.03 33.476 102.532 33.692 102.136 34.124C101.74 34.544 101.542 35.162 101.542 35.978C101.542 36.782 101.734 37.4 102.118 37.832C102.514 38.264 103.006 38.48 103.594 38.48ZM113.561 32.63C113.921 32.078 114.371 31.646 114.911 31.334C115.451 31.01 116.051 30.848 116.711 30.848V34.106H115.865C115.097 34.106 114.521 34.274 114.137 34.61C113.753 34.934 113.561 35.51 113.561 36.338V41H110.483V30.956H113.561V32.63ZM127.65 35.816C127.65 36.104 127.632 36.404 127.596 36.716H120.63C120.678 37.34 120.876 37.82 121.224 38.156C121.584 38.48 122.022 38.642 122.538 38.642C123.306 38.642 123.84 38.318 124.14 37.67H127.416C127.248 38.33 126.942 38.924 126.498 39.452C126.066 39.98 125.52 40.394 124.86 40.694C124.2 40.994 123.462 41.144 122.646 41.144C121.662 41.144 120.786 40.934 120.018 40.514C119.25 40.094 118.65 39.494 118.218 38.714C117.786 37.934 117.57 37.022 117.57 35.978C117.57 34.934 117.78 34.022 118.2 33.242C118.632 32.462 119.232 31.862 120 31.442C120.768 31.022 121.65 30.812 122.646 30.812C123.618 30.812 124.482 31.016 125.238 31.424C125.994 31.832 126.582 32.414 127.002 33.17C127.434 33.926 127.65 34.808 127.65 35.816ZM124.5 35.006C124.5 34.478 124.32 34.058 123.96 33.746C123.6 33.434 123.15 33.278 122.61 33.278C122.094 33.278 121.656 33.428 121.296 33.728C120.948 34.028 120.732 34.454 120.648 35.006H124.5Z" fill="white"/>
<path d="M12.9588 13.1197C13.9768 11.938 15.6981 11.0588 17.1188 11C17.3002 12.6437 16.6339 14.2873 15.647 15.4717C14.6602 16.6534 13.0439 17.5746 11.4587 17.4542C11.246 15.847 12.0428 14.1725 12.9588 13.1197ZM21.0405 35.5232C19.8609 37.2285 18.6415 38.9253 16.7189 38.9617C14.8247 38.9981 14.2178 37.8501 12.057 37.8501C9.89339 37.8501 9.21566 38.9253 7.42916 38.9981C5.57178 39.0681 4.1596 37.1529 2.97144 35.456C0.544081 31.9811 -1.30763 25.6333 1.18211 21.3491C2.41564 19.2211 4.62749 17.8742 7.02366 17.8406C8.84985 17.807 10.5711 19.0587 11.6856 19.0587C12.8028 19.0587 14.8956 17.555 17.0932 17.7762C18.0148 17.8154 20.5982 18.143 22.257 20.5483C22.1266 20.6323 19.1718 22.3348 19.2087 25.8797C19.2455 30.1134 22.9546 31.5219 23 31.5415C22.9631 31.6395 22.4017 33.552 21.0405 35.5232Z" fill="white"/>
</svg>
