<svg width="13" height="9" viewBox="0 0 13 9" fill="none" xmlns="http://www.w3.org/2000/svg">
<path d="M4.77073 8.36589C4.64736 8.36512 4.52932 8.31549 4.44247 8.22787L0.803731 4.591C0.716179 4.50344 0.666992 4.3847 0.666992 4.26088C0.666992 4.13706 0.716179 4.01831 0.803731 3.93076C0.891283 3.84321 1.01003 3.79402 1.13385 3.79402C1.25767 3.79402 1.37641 3.84321 1.46396 3.93076L4.77073 7.23939L10.8751 1.13503C10.9626 1.04748 11.0814 0.998291 11.2052 0.998291C11.329 0.998291 11.4478 1.04748 11.5353 1.13503C11.6229 1.22258 11.6721 1.34133 11.6721 1.46515C11.6721 1.58896 11.6229 1.70771 11.5353 1.79526L5.10084 8.22787C5.05761 8.27148 5.0062 8.30612 4.94955 8.3298C4.8929 8.35349 4.83213 8.36575 4.77073 8.36589Z" fill="white" stroke="currentColor" stroke-width="0.98"/>
</svg>
