<svg width="81" height="16" viewBox="0 0 81 16" fill="none" xmlns="http://www.w3.org/2000/svg">
<g clip-path="url(#clip0_475_3163)">
<path d="M25.3962 2.01849C22.6299 2.01849 20.1577 3.37733 20.1577 5.88787C20.1577 8.76699 24.5422 8.96585 24.5422 10.4122C24.5422 11.0213 23.8057 11.5664 22.5479 11.5664C20.7627 11.5664 19.4285 10.8047 19.4285 10.8047L18.8576 13.3381C18.8576 13.3381 20.3946 13.9815 22.4352 13.9815C25.4597 13.9815 27.8397 12.556 27.8397 10.0025C27.8397 6.9602 23.4369 6.76725 23.4369 5.42476C23.4369 4.94768 24.0415 4.42495 25.2958 4.42495C26.711 4.42495 27.8656 4.97896 27.8656 4.97896L28.4243 2.5321C28.4243 2.5321 27.168 2.01849 25.3962 2.01849ZM0.0865164 2.20316L0.0195312 2.5725C0.0195312 2.5725 1.18335 2.77435 2.23156 3.177C3.58122 3.63872 3.67737 3.90751 3.90467 4.74235L6.3816 13.7911H9.70193L14.8172 2.20316H11.5044L8.2176 10.0819L6.87637 3.40351C6.75337 2.63917 6.13033 2.20316 5.36769 2.20316H0.0865164ZM16.1493 2.20316L13.5505 13.7911H16.7095L19.2991 2.20316H16.1493ZM33.7679 2.20316C33.0061 2.20316 32.6025 2.58964 32.3064 3.265L27.6783 13.7911H30.991L31.632 12.0367H35.6678L36.0575 13.7911H38.9805L36.4305 2.20316H33.7679ZM34.1987 5.33387L35.1806 9.68223H32.55L34.1987 5.33387Z" fill="#1434CB"/>
</g>
<g clip-path="url(#clip1_475_3163)">
<path fill-rule="evenodd" clip-rule="evenodd" d="M64.3877 14.269H71.3464V1.70798H64.3877V14.269Z" fill="#FF5F00"/>
<path fill-rule="evenodd" clip-rule="evenodd" d="M64.8295 7.98847C64.8295 5.44015 66.0173 3.17054 67.867 1.70798C66.5141 0.63819 64.8074 0 62.9521 0C58.5602 0 55 3.57662 55 7.98847C55 12.4003 58.5602 15.9769 62.9521 15.9769C64.8074 15.9769 66.5141 15.3388 67.867 14.269C66.0173 12.8062 64.8295 10.5368 64.8295 7.98847Z" fill="#EB001B"/>
<path fill-rule="evenodd" clip-rule="evenodd" d="M80.4859 12.9386V12.6286H80.4052L80.3127 12.8419L80.2199 12.6286H80.1393V12.9386H80.196V12.7047L80.2831 12.9064H80.3421L80.4291 12.7043V12.9386H80.4859ZM79.9754 12.9386V12.6814H80.0787V12.6291H79.8159V12.6814H79.919V12.9386H79.9754ZM80.7342 7.98841C80.7342 12.4003 77.1737 15.9769 72.782 15.9769C70.9268 15.9769 69.2198 15.3387 67.8672 14.2689C69.7169 12.8064 70.9047 10.5367 70.9047 7.98841C70.9047 5.44031 69.7169 3.1707 67.8672 1.70792C69.2198 0.638129 70.9268 -6.10352e-05 72.782 -6.10352e-05C77.1737 -6.10352e-05 80.7342 3.57656 80.7342 7.98841Z" fill="#F79E1B"/>
</g>
<defs>
<clipPath id="clip0_475_3163">
<rect width="39" height="12" fill="white" transform="translate(0 2)"/>
</clipPath>
<clipPath id="clip1_475_3163">
<rect width="26" height="16" fill="white" transform="translate(55)"/>
</clipPath>
</defs>
</svg>
