<svg width="9" height="15" viewBox="0 0 9 15" fill="none" xmlns="http://www.w3.org/2000/svg">
<path fill-rule="evenodd" clip-rule="evenodd" d="M8.58362 7.50352C8.87564 6.77525 8.33937 5.98245 7.55474 5.98245C6.94252 5.98245 6.44622 5.48615 6.44622 4.87393V3.78996C6.44622 3.18483 6.93854 3.24183 7.54515 3.24183C8.15207 3.24183 8.64407 2.74983 8.64407 2.14291V1.87153C8.64407 1.11473 8.03057 0.501221 7.27377 0.501221H6.44622C5.57186 0.501221 4.73332 0.847712 4.11505 1.46447C3.49679 2.08123 3.14945 2.91773 3.14945 3.78996V4.88352C3.14945 5.49044 2.65744 5.98245 2.05052 5.98245C1.4436 5.98245 0.951599 6.47445 0.951599 7.08137V7.62413C0.951599 8.23105 1.4436 8.72306 2.05052 8.72306C2.65744 8.72306 3.14945 9.21506 3.14945 9.82198V13.104C3.14945 14.0144 3.88746 14.7524 4.79784 14.7524C5.70822 14.7524 6.44622 14.0144 6.44622 13.104V9.70634C6.44622 9.16329 6.88645 8.72306 7.4295 8.72306C7.83127 8.72306 8.19262 8.47863 8.34215 8.10573L8.58362 7.50352Z" fill="currentColor"/>
</svg>
