<svg width="20" height="20" viewBox="0 0 20 20" fill="none" xmlns="http://www.w3.org/2000/svg">
<path d="M16.9648 12.3242L18.125 11.1641L16.9648 10L14.0625 12.9023L7.09766 5.9375L10 3.03516L8.83984 1.875L7.67969 3.03516L6.51562 1.875L4.77734 3.61328L3.61328 2.45312L2.45312 3.61328L3.61328 4.77344L1.875 6.51562L3.03516 7.67578L1.875 8.83984L3.03516 10L5.9375 7.09766L12.9023 14.0625L10 16.9648L11.1602 18.125L12.3203 16.9648L13.4805 18.125L15.2188 16.3867L16.3789 17.5469L17.5391 16.3867L16.3789 15.2266L18.1172 13.4883L16.9648 12.3242Z" fill="currentColor"/>
</svg>
