<svg width="24" height="24" viewBox="0 0 24 24" fill="none" xmlns="http://www.w3.org/2000/svg">
<g clip-path="url(#clip0_493_4633)">
<path fill-rule="evenodd" clip-rule="evenodd" d="M9.51471 3.18167C9.27309 3.26155 9.03447 3.35233 8.79952 3.45387C7.72402 3.91873 6.7468 4.60008 5.92365 5.45902C5.1005 6.31796 4.44754 7.33768 4.00205 8.45994C3.64851 9.35058 3.43113 10.292 3.35646 11.2498H7.65025C7.68092 10.1539 7.77871 9.07386 7.94123 8.05033C8.1405 6.79534 8.43491 5.6389 8.81393 4.65015C9.02087 4.11033 9.25466 3.61617 9.51471 3.18167ZM12.1919 1.24976C10.839 1.24976 9.49933 1.52781 8.24942 2.06805C6.99951 2.60829 5.86382 3.40013 4.90718 4.39836C3.95055 5.39659 3.1917 6.58166 2.67397 7.88591C2.15624 9.19016 1.88977 10.588 1.88977 11.9998C1.88977 13.4115 2.15624 14.8094 2.67397 16.1136C3.1917 17.4179 3.95055 18.603 4.90718 19.6012C5.86382 20.5994 6.99951 21.3913 8.24942 21.9315C9.49933 22.4717 10.839 22.7498 12.1919 22.7498C13.5447 22.7498 14.8844 22.4717 16.1342 21.9315C17.3842 21.3913 18.5199 20.5994 19.4765 19.6012C20.4331 18.603 21.192 17.4179 21.7097 16.1136C22.2274 14.8094 22.4939 13.4115 22.4939 11.9998C22.4939 10.588 22.2274 9.19016 21.7097 7.88591C21.192 6.58166 20.4331 5.39659 19.4765 4.39836C18.5199 3.40013 17.3842 2.60829 16.1342 2.06806C14.8844 1.52781 13.5447 1.24976 12.1919 1.24976ZM12.1919 2.74976C11.9414 2.74976 11.618 2.87555 11.242 3.28196C10.863 3.69137 10.4837 4.33302 10.1486 5.20723C9.81573 6.07565 9.54541 7.124 9.3594 8.29552C9.21016 9.23545 9.11864 10.2329 9.0884 11.2498H15.2953C15.265 10.2329 15.1735 9.23545 15.0243 8.29552C14.8383 7.124 14.568 6.07566 14.2351 5.20724C13.9 4.33302 13.5207 3.69137 13.1418 3.28196C12.7657 2.87555 12.4423 2.74976 12.1919 2.74976ZM16.7335 11.2498C16.7028 10.1539 16.605 9.07387 16.4424 8.05033C16.2432 6.79534 15.9488 5.6389 15.5698 4.65015C15.3629 4.11033 15.1291 3.61617 14.869 3.18167C15.1107 3.26155 15.3493 3.35233 15.5842 3.45387C16.6597 3.91873 17.6369 4.60008 18.46 5.45902C19.2832 6.31797 19.9361 7.33768 20.3817 8.45994C20.7352 9.35058 20.9526 10.292 21.0272 11.2498H16.7335ZM15.2953 12.7498H9.0884C9.11864 13.7667 9.21016 14.7641 9.3594 15.704C9.54541 16.8756 9.81573 17.9239 10.1486 18.7923C10.4837 19.6665 10.863 20.3082 11.242 20.7176C11.618 21.124 11.9414 21.2498 12.1919 21.2498C12.4423 21.2498 12.7657 21.124 13.1418 20.7176C13.5207 20.3082 13.9 19.6665 14.2351 18.7923C14.568 17.9239 14.8383 16.8756 15.0243 15.704C15.1735 14.7641 15.265 13.7667 15.2953 12.7498ZM14.869 20.8179C15.1291 20.3834 15.3629 19.8892 15.5698 19.3494C15.9488 18.3607 16.2432 17.2042 16.4424 15.9492C16.605 14.9257 16.7028 13.8457 16.7335 12.7498H21.0272C20.9526 13.7076 20.7352 14.649 20.3817 15.5396C19.9361 16.6619 19.2832 17.6816 18.46 18.5405C17.6369 19.3995 16.6597 20.0808 15.5842 20.5457C15.3493 20.6472 15.1107 20.738 14.869 20.8179ZM9.51471 20.8179C9.25466 20.3834 9.02087 19.8892 8.81393 19.3494C8.43491 18.3607 8.1405 17.2042 7.94123 15.9492C7.77871 14.9257 7.68092 13.8457 7.65025 12.7498H3.35646C3.43113 13.7076 3.64851 14.649 4.00205 15.5396C4.44754 16.6619 5.1005 17.6816 5.92365 18.5405C6.7468 19.3995 7.72402 20.0808 8.79952 20.5457C9.03447 20.6472 9.27308 20.738 9.51471 20.8179Z" fill="currentColor"/>
</g>
<defs>
<clipPath id="clip0_493_4633">
<rect width="24" height="24" fill="currentColor" transform="translate(0 -0.000244141)"/>
</clipPath>
</defs>
</svg>
