<svg width="18" height="19" viewBox="0 0 18 19" fill="none" xmlns="http://www.w3.org/2000/svg">
<g clip-path="url(#clip0_465_2008)">
<path d="M12.7435 2.09961H5.24522C3.17463 2.09961 1.49609 3.76849 1.49609 5.82717V13.2823C1.49609 15.341 3.17463 17.0098 5.24522 17.0098H12.7435C14.814 17.0098 16.4926 15.341 16.4926 13.2823V5.82717C16.4926 3.76849 14.814 2.09961 12.7435 2.09961Z" stroke="currentColor" stroke-width="2" stroke-linecap="round" stroke-linejoin="round"/>
<path d="M11.9935 9.08565C12.086 9.7061 11.9794 10.3398 11.6889 10.8965C11.3983 11.4533 10.9386 11.9047 10.3751 12.1867C9.81159 12.4687 9.173 12.5669 8.55015 12.4672C7.9273 12.3676 7.35191 12.0752 6.90582 11.6317C6.45973 11.1882 6.16566 10.6161 6.06544 9.99682C5.96521 9.37756 6.06394 8.74264 6.34757 8.18237C6.6312 7.6221 7.08529 7.16502 7.64526 6.87613C8.20523 6.58725 8.84255 6.48127 9.46659 6.57327C10.1031 6.66712 10.6924 6.96203 11.1475 7.41444C11.6025 7.86685 11.8991 8.45277 11.9935 9.08565Z" stroke="currentColor" stroke-width="2" stroke-linecap="round" stroke-linejoin="round"/>
<ellipse cx="13.1172" cy="5.45225" rx="1.125" ry="1.11827" fill="currentColor"/>
</g>
<defs>
<clipPath id="clip0_465_2008">
<rect width="17.9958" height="17.8923" fill="currentColor" transform="translate(-0.00390625 0.607422)"/>
</clipPath>
</defs>
</svg>
