<svg width="124" height="30" viewBox="0 0 124 30" fill="none" xmlns="http://www.w3.org/2000/svg">
<g clip-path="url(#clip0_485_2895)">
<path d="M43.3951 24.6098H39.7925V10.2811H43.3951V24.6098ZM40.0371 7.96721C39.8373 7.76991 39.6786 7.53456 39.5702 7.27491C39.4619 7.01525 39.4061 6.7365 39.4061 6.45492C39.4061 6.17334 39.4619 5.89458 39.5702 5.63493C39.6786 5.37527 39.8373 5.13993 40.0371 4.94263C40.4716 4.55001 41.0352 4.33282 41.6195 4.33282C42.2037 4.33282 42.7673 4.55001 43.2019 4.94263C43.4011 5.14027 43.5593 5.37573 43.6672 5.63533C43.7752 5.89494 43.8308 6.17353 43.8308 6.45492C43.8308 6.73631 43.7752 7.01489 43.6672 7.2745C43.5593 7.53411 43.4011 7.76957 43.2019 7.96721C42.7666 8.35831 42.2033 8.5745 41.6195 8.5745C41.0357 8.5745 40.4724 8.35831 40.0371 7.96721Z" fill="white"/>
<path d="M52.2169 13.2566V20.1861C52.1998 20.3757 52.2217 20.5669 52.2815 20.7475C52.3413 20.9282 52.4375 21.0945 52.5642 21.2361C52.8088 21.45 53.1855 21.5582 53.7358 21.5582H55.4062V24.6098H53.1463C50.1103 24.6098 48.5923 23.127 48.5923 20.1615V13.2566H46.895V10.2811H48.5923V6.73771H52.2169V10.2811H61.6087V13.2566H52.2169Z" fill="white"/>
<path d="M61.6087 24.6098H58.0085V10.2811H61.6087V24.6098ZM58.2531 7.96721C58.0533 7.76991 57.8946 7.53456 57.7862 7.27491C57.6779 7.01525 57.6221 6.7365 57.6221 6.45492C57.6221 6.17334 57.6779 5.89459 57.7862 5.63493C57.8946 5.37527 58.0533 5.13993 58.2531 4.94263C58.6872 4.55019 59.2504 4.33307 59.8343 4.33307C60.4181 4.33307 60.9813 4.55019 61.4154 4.94263C61.6153 5.13993 61.774 5.37527 61.8823 5.63493C61.9907 5.89459 62.0465 6.17334 62.0465 6.45492C62.0465 6.7365 61.9907 7.01525 61.8823 7.27491C61.774 7.53456 61.6153 7.76991 61.4154 7.96721C60.9805 8.35813 60.4176 8.57423 59.8343 8.57423C59.2509 8.57423 58.688 8.35813 58.2531 7.96721Z" fill="white"/>
<path d="M65.133 13.5541C65.7033 12.4719 66.5675 11.5747 67.6252 10.9672C68.7454 10.3394 70.0117 10.0228 71.2939 10.05C73.0597 10.05 74.5215 10.4935 75.6791 11.3803C76.8368 12.2672 77.6088 13.5148 77.9953 15.123H74.1114C73.9277 14.5369 73.5627 14.0252 73.0695 13.6623C72.5366 13.2948 71.9006 13.1086 71.2547 13.1312C70.7877 13.1121 70.3227 13.2041 69.8977 13.3998C69.4727 13.5955 69.0997 13.8893 68.809 14.2574C68.2073 15.0066 67.9073 16.0721 67.9089 17.4541C67.9106 18.8361 68.2106 19.8918 68.809 20.6213C69.0997 20.9894 69.4727 21.2832 69.8977 21.4789C70.3227 21.6746 70.7877 21.7666 71.2547 21.7475C72.7124 21.7475 73.6646 21.0918 74.1114 19.7803H77.9953C77.6531 21.2409 76.8278 22.5414 75.6547 23.4689C74.4872 24.3836 73.0295 24.841 71.2816 24.841C70.0036 24.8659 68.7419 24.5493 67.6252 23.9238C66.5662 23.3182 65.7009 22.4218 65.1306 21.3394C64.5385 20.1281 64.2306 18.7964 64.2306 17.4467C64.2306 16.0971 64.5385 14.7654 65.1306 13.5541" fill="white"/>
<path d="M89.0819 24.6098L84.2442 18.5066V24.6098H80.644V5.47131H84.2442V16.3598L89.0281 10.2811H93.7117L87.4359 17.4713L93.7631 24.6098H89.0819Z" fill="white"/>
<path d="M105.182 16.1066C105.19 15.6822 105.105 15.2613 104.931 14.8744C104.758 14.4874 104.501 14.144 104.18 13.8689C103.512 13.3021 102.661 13.0027 101.788 13.0279C100.962 13.0043 100.159 13.295 99.5375 13.8418C98.9029 14.4348 98.5047 15.2399 98.4174 16.1066H105.182ZM108.809 18.5361H98.3929C98.4793 19.5721 98.8397 20.3828 99.4739 20.968C100.11 21.5566 100.95 21.8725 101.815 21.8484C103.15 21.8484 104.101 21.2705 104.669 20.1147H108.553C108.153 21.4768 107.323 22.6707 106.188 23.5156C105.022 24.4041 103.589 24.8484 101.89 24.8484C100.6 24.8679 99.3275 24.5492 98.1972 23.9238C97.1174 23.3219 96.2333 22.4193 95.6512 21.3246C95.0238 20.131 94.709 18.7965 94.7365 17.4467C94.707 16.0899 95.0165 14.7473 95.6365 13.5418C96.2078 12.4504 97.0844 11.5511 98.1581 10.9549C99.2968 10.3649 100.558 10.0548 101.839 10.0501C103.12 10.0454 104.384 10.3462 105.527 10.9279C106.583 11.498 107.451 12.3654 108.024 13.4238C108.631 14.5641 108.935 15.8417 108.91 17.1344C108.914 17.602 108.879 18.0692 108.807 18.5311" fill="white"/>
<path d="M115.728 13.2566V20.1861C115.711 20.3757 115.733 20.5669 115.793 20.7475C115.853 20.9282 115.949 21.0945 116.076 21.2361C116.308 21.45 116.697 21.5582 117.247 21.5582H118.92V24.6098H116.655C113.619 24.6098 112.102 23.127 112.104 20.1615V13.2566H110.392V10.2811H112.104V6.73771H115.728V10.2811H118.92V13.2566H115.728Z" fill="white"/>
<path d="M28.7817 10.7926C28.5782 11.0134 28.3325 11.1907 28.0592 11.3138C27.786 11.4369 27.4909 11.5033 27.1915 11.5091C26.8922 11.5148 26.5947 11.4597 26.317 11.3472C26.0393 11.2347 25.7871 11.0669 25.5754 10.8541C25.3636 10.6412 25.1968 10.3876 25.0849 10.1084C24.9729 9.82915 24.9182 9.53011 24.9239 9.22913C24.9296 8.92815 24.9956 8.63141 25.1181 8.35669C25.2405 8.08198 25.4168 7.83493 25.6365 7.63033L22.3567 4.33279L8.15172 18.6148L12.6201 23.1074C14.0929 24.5881 16.0904 25.42 18.1732 25.42C20.256 25.42 22.2535 24.5881 23.7263 23.1074L32.3794 14.4098L28.7817 10.7926Z" fill="#EB592E"/>
<ellipse cx="16.8672" cy="14.8764" rx="14.8503" ry="15" fill="#8EF251"/>
<path d="M24.0337 11.8585C23.8974 12.007 23.7329 12.1263 23.5499 12.2091C23.3669 12.2919 23.1693 12.3366 22.9689 12.3404C22.7684 12.3443 22.5692 12.3072 22.3833 12.2315C22.1973 12.1558 22.0284 12.043 21.8866 11.8998C21.7449 11.7566 21.6332 11.586 21.5582 11.3981C21.4832 11.2103 21.4466 11.0091 21.4504 10.8066C21.4542 10.6042 21.4984 10.4045 21.5804 10.2197C21.6624 10.0349 21.7805 9.86873 21.9276 9.73109L19.7313 7.51274L10.2194 17.1206L13.2115 20.1429C14.1977 21.139 15.5353 21.6987 16.93 21.6987C18.3247 21.6987 19.6623 21.139 20.6485 20.1429L26.4428 14.2918L24.0337 11.8585Z" fill="black" fill-opacity="0.4"/>
<path d="M24.6935 16.0569C24.3229 16.1879 23.9245 16.2172 23.5389 16.1419C23.1534 16.0667 22.7946 15.8895 22.4989 15.6285L19.8458 13.2828L14.1284 7.51274L11.8258 9.83862C12.0675 10.1275 12.1928 10.4977 12.1769 10.8756C12.1609 11.2536 12.0048 11.6116 11.7396 11.8787C11.4744 12.1457 11.1194 12.3023 10.7452 12.3172C10.371 12.3322 10.0049 12.2044 9.71965 11.9594L7.41699 14.2918L13.2113 20.1429C14.1975 21.1391 15.5351 21.6987 16.9298 21.6987C18.3245 21.6987 19.6621 21.1391 20.6483 20.1429L22.9313 17.8369L24.6935 16.0569Z" fill="black"/>
</g>
<defs>
<clipPath id="clip0_485_2895">
<rect width="124" height="30" fill="white"/>
</clipPath>
</defs>
</svg>
