<svg width="152" height="152" viewBox="0 0 152 152" fill="none" xmlns="http://www.w3.org/2000/svg">
<g clip-path="url(#clip0_479_1958)">
<path d="M47.5 -0.000488281H0V47.4995H47.5V-0.000488281ZM38 37.9995H9.5V9.49951H38V37.9995Z" fill="currentColor"/>
<path d="M28.502 19.0014H19.002V28.5014H28.502V19.0014Z" fill="currentColor"/>
<path d="M104.501 -0.000366211V47.4996H152.001V-0.000366211H104.501ZM142.501 37.9996H114.001V9.49963H142.501V37.9996Z" fill="currentColor"/>
<path d="M133.002 19.0014H123.502V28.5014H133.002V19.0014Z" fill="currentColor"/>
<path d="M0 151.999H47.5V104.499H0V151.999ZM9.5 113.999H38V142.499H9.5V113.999Z" fill="currentColor"/>
<path d="M28.502 123.501H19.002V133.001H28.502V123.501Z" fill="currentColor"/>
<path d="M95.0029 -0.000366211H76.0029V9.49963H95.0029V-0.000366211Z" fill="currentColor"/>
<path d="M76.0019 38.0018H85.5019V28.5018H95.0019V19.0018H66.502V9.50177H57.002V19.0018V23.7518V28.5018H76.0019V38.0018Z" fill="currentColor"/>
<path d="M66.502 38H57.002V47.5H66.502V38Z" fill="currentColor"/>
<path d="M95.0019 47.501H85.5019V57.001H57.002V66.501H95.0019V47.501Z" fill="currentColor"/>
<path d="M9.5 85.5018H19V76.0018H9.5V57.0018H0V95.0018H9.5V85.5018Z" fill="currentColor"/>
<path d="M28.502 57.0018H19.002V66.5018H28.502V57.0018Z" fill="currentColor"/>
<path d="M57.001 95.0018H76.001V85.5018H66.501V76.0018H47.501V57.0018H38.001V76.0018H28.501V95.0018H38.001V85.5018H42.751H47.501H57.001V95.0018Z" fill="currentColor"/>
<path d="M95.001 75.9993H85.501V94.9993H95.001V75.9993Z" fill="currentColor"/>
<path d="M85.5019 104.499H57.002V113.999H76.0019V142.499H57.002V151.999H85.5019V142.499H104.502V132.999H85.5019V104.499Z" fill="currentColor"/>
<path d="M66.502 123.501H57.002V133.001H66.502V123.501Z" fill="currentColor"/>
<path d="M104.501 104.499H95.001V123.499H104.501V104.499Z" fill="currentColor"/>
<path d="M142.502 123.501H114.002V152.001H123.502V133.001H142.502V123.501Z" fill="currentColor"/>
<path d="M152 142.501H133V152.001H152V142.501Z" fill="currentColor"/>
<path d="M152.001 104.499H142.501V113.999H152.001V104.499Z" fill="currentColor"/>
<path d="M114.001 114.001H123.501V85.5015H104.501V95.0015H114.001V114.001Z" fill="currentColor"/>
<path d="M133.001 66.5018H123.501V57.0018H114.001V66.5018H104.501V76.0018H142.501V66.5018H152.001V57.0018H133.001V66.5018Z" fill="currentColor"/>
<path d="M152 85.5015H133V95.0015H152V85.5015Z" fill="currentColor"/>
</g>
<defs>
<clipPath id="clip0_479_1958">
<rect width="152" height="152" rx="12" fill="currentColor"/>
</clipPath>
</defs>
</svg>
