<svg width="24" height="25" viewBox="0 0 24 25" fill="none" xmlns="http://www.w3.org/2000/svg">
<path d="M19.5 13C19.5 11.6442 20.62 10.5438 22 10.5438V9.56139C22 5.63156 21 4.64911 17 4.64911H7C3 4.64911 2 5.63156 2 9.56139V10.0526C3.38 10.0526 4.5 11.153 4.5 12.5088C4.5 13.8645 3.38 14.9649 2 14.9649V15.4561C2 19.386 3 20.3684 7 20.3684H17C21 20.3684 22 19.386 22 15.4561C20.62 15.4561 19.5 14.3558 19.5 13Z" stroke="currentColor" stroke-width="1.5" stroke-linecap="round" stroke-linejoin="round"/>
<path d="M10 4.64911L10 20.3684" stroke="currentColor" stroke-width="1.5" stroke-linecap="round" stroke-linejoin="round" stroke-dasharray="5 5"/>
</svg>
