<svg width="22" height="22" viewBox="0 0 22 22" fill="none" xmlns="http://www.w3.org/2000/svg">
<path d="M19.9028 1.70618C19.1137 0.522577 13.4776 0.688514 11.0903 0.812362C10.9688 0.818759 10.8538 0.869227 10.7668 0.95432C7.43378 4.20556 2.37383 9.11131 1.78986 9.59981C1.72479 9.63326 1.66731 9.67975 1.62099 9.73638C1.12756 10.5746 0.866056 11.529 0.863303 12.5016C0.860551 13.4743 1.11665 14.4302 1.60532 15.2711C3.15507 17.7793 6.71666 20.6076 6.8674 20.7271C6.89719 20.7506 6.92954 20.7706 6.96384 20.7868C7.6846 21.1012 8.46149 21.2667 9.24784 21.2734C10.1812 21.2898 11.0921 20.9867 11.8295 20.4143C13.718 18.9306 20.4618 11.6905 20.7482 11.3831C20.8369 11.2873 20.885 11.1607 20.8823 11.0301C20.8519 9.67276 20.6615 2.84426 19.9028 1.70618ZM11.2098 19.6262C9.73442 20.7854 7.7681 20.0384 7.44014 19.9008C7.00595 19.5518 3.82079 16.9492 2.45803 14.744C1.13149 12.599 2.39537 10.3757 2.40957 10.3551L2.40222 10.3488C2.92648 9.9562 4.0582 8.8607 6.95848 6.05245C8.89003 4.18257 10.8133 2.30926 11.3312 1.8041C14.742 1.63668 18.6168 1.78109 19.0687 2.26227C19.4593 2.8482 19.7819 7.04858 19.8749 10.849C18.8836 11.9103 12.8931 18.3036 11.2098 19.6262V19.6262Z" fill="currentColor" stroke="currentColor" stroke-width="1.2"/>
<path d="M13.4438 4.66028C12.7516 4.66033 12.075 4.86561 11.4995 5.25018C10.9241 5.63475 10.4755 6.18132 10.2107 6.82079C9.94584 7.46026 9.87655 8.16391 10.0116 8.84275C10.1466 9.5216 10.4799 10.1452 10.9694 10.6346C11.4588 11.124 12.0823 11.4573 12.7612 11.5924C13.44 11.7274 14.1437 11.6581 14.7832 11.3933C15.4226 11.1284 15.9692 10.6799 16.3538 10.1044C16.7383 9.52893 16.9436 8.85234 16.9437 8.16019C16.9427 7.23224 16.5737 6.34258 15.9175 5.68642C15.2614 5.03026 14.3717 4.66122 13.4438 4.66028ZM13.4438 10.6571C12.9499 10.6571 12.4671 10.5106 12.0564 10.2361C11.6458 9.9617 11.3258 9.57166 11.1368 9.11534C10.9479 8.65903 10.8985 8.15692 10.9949 7.67253C11.0913 7.18813 11.3291 6.7432 11.6784 6.394C12.0277 6.0448 12.4727 5.80701 12.9571 5.71071C13.4415 5.6144 13.9436 5.6639 14.3999 5.85295C14.8561 6.042 15.2461 6.36211 15.5205 6.77279C15.7948 7.18348 15.9412 7.66629 15.9412 8.16019C15.9405 8.82229 15.6771 9.45706 15.2089 9.92519C14.7407 10.3933 14.1059 10.6565 13.4438 10.6571Z" fill="currentColor" stroke="currentColor"/>
</svg>
